<svg
        xmlns="http://www.w3.org/2000/svg"
        xmlns:xlink="http://www.w3.org/1999/xlink"
        width="0.318cm" height="0.6cm">
    <path fill-rule="evenodd"  fill="rgb(204, 204, 204)"
          d="M8.437,6.954 L0.563,6.954 C0.411,6.954 0.279,6.877 0.167,6.724 C0.056,6.572 0.000,6.390 0.000,6.181 C0.000,5.972 0.056,5.791 0.167,5.638 L4.104,0.227 C4.216,0.075 4.348,-0.002 4.500,-0.002 C4.652,-0.002 4.784,0.075 4.895,0.227 L8.832,5.638 C8.944,5.791 8.999,5.972 8.999,6.181 C8.999,6.390 8.944,6.572 8.832,6.724 C8.721,6.877 8.589,6.954 8.437,6.954 ZM0.563,10.046 L8.437,10.046 C8.589,10.046 8.721,10.122 8.832,10.275 C8.944,10.428 8.999,10.609 8.999,10.818 C8.999,11.028 8.944,11.209 8.832,11.362 L4.895,16.772 C4.784,16.925 4.652,17.002 4.500,17.002 C4.348,17.002 4.216,16.925 4.104,16.772 L0.167,11.362 C0.056,11.209 0.000,11.028 0.000,10.818 C0.000,10.609 0.056,10.428 0.167,10.275 C0.279,10.122 0.410,10.046 0.563,10.046 Z"/>
</svg>