<svg
        xmlns="http://www.w3.org/2000/svg"
        xmlns:xlink="http://www.w3.org/1999/xlink"
        width="0.67cm" height="0.882cm">
    <path fill-rule="evenodd"  fill="rgb(255, 26, 58)"
          d="M18.536,12.956 C18.228,12.651 17.855,12.500 17.415,12.500 L5.278,12.500 L5.278,7.291 C5.278,6.140 5.691,5.158 6.515,4.345 C7.340,3.531 8.335,3.124 9.500,3.124 C10.665,3.124 11.660,3.531 12.485,4.345 C13.309,5.158 13.722,6.140 13.722,7.291 C13.722,7.573 13.826,7.817 14.035,8.023 C14.244,8.229 14.491,8.333 14.777,8.333 L15.832,8.333 C16.118,8.333 16.365,8.229 16.574,8.023 C16.783,7.817 16.888,7.573 16.888,7.291 C16.888,5.283 16.165,3.566 14.719,2.139 C13.274,0.712 11.534,-0.002 9.500,-0.002 C7.466,-0.002 5.727,0.712 4.281,2.139 C2.835,3.566 2.113,5.283 2.113,7.291 L2.113,12.500 L1.585,12.500 C1.145,12.500 0.772,12.652 0.464,12.956 C0.156,13.259 0.002,13.629 0.002,14.062 L0.002,23.439 C0.002,23.873 0.156,24.242 0.464,24.546 C0.772,24.850 1.145,25.002 1.585,25.002 L17.415,25.002 C17.855,25.002 18.229,24.850 18.536,24.546 C18.844,24.242 18.998,23.873 18.998,23.439 L18.998,14.062 C18.998,13.629 18.844,13.259 18.536,12.956 Z"/>
</svg>