<svg
        xmlns="http://www.w3.org/2000/svg"
        xmlns:xlink="http://www.w3.org/1999/xlink"
        width="1.235cm" height="0.882cm">
    <path fill-rule="evenodd"  fill="rgb(255, 26, 58)"
          d="M35.000,11.969 L32.921,17.715 L32.921,14.231 L33.556,12.476 C33.205,12.177 32.918,11.803 32.715,11.374 C32.511,10.944 32.405,10.487 32.396,10.026 L18.301,4.982 L16.434,10.143 L11.944,10.143 C12.239,9.920 12.477,9.615 12.611,9.242 C12.958,8.287 12.512,7.248 11.619,6.808 L11.777,6.372 L11.235,6.178 L11.073,6.625 C10.140,6.466 9.198,6.985 8.866,7.902 C8.564,8.737 8.868,9.635 9.544,10.144 L9.544,10.145 L1.936,10.145 C1.935,10.145 1.934,10.144 1.933,10.143 L5.139,1.283 C6.251,1.681 7.478,1.107 7.879,-0.000 L17.587,3.474 L33.710,9.243 C33.310,10.351 33.887,11.571 35.000,11.969 ZM11.430,5.639 L11.972,5.833 L12.167,5.294 L11.625,5.100 L11.430,5.639 ZM11.820,4.561 L12.362,4.755 L12.558,4.216 L12.015,4.022 L11.820,4.561 ZM12.210,3.483 L12.752,3.677 L12.947,3.138 L12.405,2.944 L12.210,3.483 ZM12.795,1.866 L12.600,2.405 L13.142,2.599 L13.337,2.060 L12.795,1.866 ZM29.593,11.323 C29.593,12.500 30.552,13.454 31.735,13.454 L31.735,22.870 C30.552,22.870 29.593,23.823 29.593,25.000 L2.142,25.000 C2.142,23.824 1.183,22.870 -0.000,22.870 L-0.000,13.454 C1.183,13.454 2.142,12.500 2.142,11.323 L29.593,11.323 ZM7.979,11.723 L7.403,11.723 L7.403,12.296 L7.979,12.296 L7.979,11.723 ZM7.979,12.869 L7.403,12.869 L7.403,13.442 L7.979,13.442 L7.979,12.869 ZM7.979,14.015 L7.403,14.015 L7.403,14.588 L7.979,14.588 L7.979,14.015 ZM7.979,15.160 L7.403,15.160 L7.403,15.733 L7.979,15.733 L7.979,15.160 ZM13.645,23.821 L28.626,23.821 C28.963,22.943 29.666,22.244 30.549,21.908 L30.549,14.416 C29.666,14.080 28.963,13.381 28.626,12.503 L13.645,12.503 L13.645,23.821 ZM7.403,24.899 L7.979,24.899 L7.979,24.326 L7.403,24.326 L7.403,24.899 ZM7.403,23.753 L7.979,23.753 L7.979,23.180 L7.403,23.180 L7.403,23.753 ZM7.403,22.608 L7.979,22.608 L7.979,22.035 L7.403,22.035 L7.403,22.608 ZM7.403,21.462 L7.979,21.462 L7.979,20.889 L7.403,20.889 L7.403,21.462 ZM7.403,19.841 L7.403,20.316 L7.979,20.316 L7.979,19.853 C8.970,19.739 9.742,18.912 9.742,17.896 C9.742,16.803 8.851,15.916 7.751,15.916 C6.652,15.916 5.760,16.803 5.760,17.896 C5.760,18.871 6.470,19.676 7.403,19.841 Z"/>
</svg>