<svg xmlns="http://www.w3.org/2000/svg" xmlns:xlink="http://www.w3.org/1999/xlink" width="0.67cm" height="0.67cm">
    <path fill-rule="evenodd"  fill="rgb(255, 255, 255)"
          d="M17.949,10.872 L17.689,10.872 L15.725,10.872 C15.143,10.872 14.672,10.418 14.672,9.856 L14.672,9.746 C14.672,9.184 15.143,8.730 15.724,8.730 L15.986,8.730 L17.949,8.730 C18.530,8.730 19.002,9.184 19.001,9.744 L19.002,9.856 C19.002,10.416 18.530,10.872 17.949,10.872 ZM17.948,13.405 L17.688,13.405 L15.985,13.405 L15.724,13.405 C15.143,13.405 14.672,12.951 14.672,12.391 L14.672,12.279 C14.672,11.718 15.144,11.263 15.724,11.263 L17.689,11.263 L17.949,11.263 C18.531,11.263 19.001,11.718 19.001,12.279 L19.001,12.391 C19.000,12.951 18.531,13.405 17.948,13.405 ZM17.950,8.338 L17.688,8.338 L15.985,8.338 L15.724,8.338 C15.144,8.338 14.672,7.885 14.672,7.323 L14.672,7.213 C14.672,6.651 15.144,6.197 15.725,6.197 L15.986,6.197 L15.986,6.196 L16.560,6.196 L16.560,2.036 L6.970,2.035 L6.970,4.306 C7.888,3.808 8.693,3.378 9.084,3.182 C10.328,2.559 11.045,3.318 10.830,4.219 C10.664,4.913 9.441,5.679 8.152,6.640 C7.898,6.830 7.451,7.114 6.970,7.409 L6.970,16.625 L16.560,16.625 L16.560,15.938 L15.725,15.938 C15.143,15.938 14.672,15.483 14.672,14.924 L14.672,14.811 C14.672,14.250 15.142,13.796 15.724,13.796 L15.986,13.796 L17.689,13.796 L17.949,13.796 C18.530,13.796 19.001,14.249 19.003,14.810 L19.001,14.920 C19.002,15.482 18.531,15.936 17.948,15.936 L17.689,15.936 L17.689,15.938 L17.486,15.938 L17.486,17.717 C17.486,18.421 16.887,18.999 16.155,18.999 L7.374,18.999 C6.643,18.999 6.044,18.421 6.044,17.717 L6.044,16.258 L4.445,16.258 C4.445,16.258 2.083,16.250 0.802,14.382 C0.789,14.363 0.775,14.345 0.762,14.326 C0.708,14.245 0.659,14.158 0.610,14.070 C0.567,13.995 0.528,13.917 0.489,13.837 C0.451,13.760 0.415,13.684 0.381,13.603 C0.314,13.439 0.255,13.266 0.203,13.081 C0.188,13.026 0.178,12.967 0.164,12.911 C0.126,12.751 0.093,12.584 0.068,12.408 C0.058,12.341 0.049,12.273 0.041,12.204 C0.015,11.965 -0.003,11.717 -0.003,11.449 C-0.003,8.450 1.450,7.179 2.442,6.786 C2.445,6.783 4.272,5.775 6.044,4.809 L6.044,1.284 C6.044,0.578 6.643,0.000 7.374,0.000 L16.155,0.000 C16.887,0.000 17.486,0.578 17.486,1.284 L17.486,6.196 L17.950,6.196 C18.531,6.196 19.002,6.652 19.001,7.210 L19.001,7.323 C19.001,7.884 18.531,8.338 17.950,8.338 ZM11.764,18.359 C12.132,18.359 12.430,18.073 12.430,17.718 C12.430,17.363 12.132,17.076 11.764,17.076 C11.397,17.076 11.100,17.364 11.100,17.717 C11.100,18.073 11.397,18.359 11.764,18.359 ZM13.170,0.925 L10.360,0.925 C10.271,0.925 10.199,0.994 10.199,1.082 C10.199,1.167 10.271,1.236 10.360,1.236 L13.170,1.236 C13.258,1.236 13.330,1.167 13.330,1.082 C13.330,0.994 13.258,0.925 13.170,0.925 Z"/>
</svg>